<svg width="122" height="175" viewBox="0 0 122 175" fill="none" xmlns="http://www.w3.org/2000/svg">
<path d="M0.21947 115.642C-0.150606 116.366 -0.0462883 117.241 0.483418 117.857L48.2629 173.43C49.4813 174.848 51.8051 173.968 51.7792 172.099L51.3592 141.727C51.3523 141.226 51.1576 140.746 50.8137 140.382L32.7075 121.202C31.5033 119.926 32.4076 117.829 34.1618 117.829H87.0533C88.8075 117.829 89.7118 119.926 88.5076 121.202L70.4014 140.382C70.0575 140.746 69.8628 141.226 69.8559 141.727L69.4359 172.099C69.41 173.968 71.7337 174.848 72.9522 173.43L120.732 117.857C121.261 117.241 121.366 116.366 120.996 115.642L62.3881 1.08906C61.6451 -0.363018 59.57 -0.363026 58.827 1.08906L0.21947 115.642ZM84.3134 94.7963C84.9702 96.1256 84.003 97.6823 82.5204 97.6823H38.6947C37.2121 97.6823 36.2449 96.1256 36.9017 94.7963L58.8145 50.4487C59.5484 48.9634 61.6667 48.9634 62.4006 50.4487L84.3134 94.7963Z" fill="#FBFBFE"/>
</svg>
