<svg width="122" height="175" viewBox="0 0 122 175" fill="none" xmlns="http://www.w3.org/2000/svg">
<path d="M0.219531 115.642C-0.150545 116.366 -0.0462272 117.241 0.483479 117.857L48.2629 173.43C49.4814 174.848 51.8051 173.968 51.7793 172.099L51.3593 141.727C51.3523 141.226 51.1577 140.746 50.8138 140.382L32.7075 121.202C31.5033 119.926 32.4077 117.829 34.1619 117.829H87.0533C88.8075 117.829 89.7119 119.926 88.5077 121.202L70.4014 140.382C70.0575 140.746 69.8629 141.226 69.8559 141.727L69.4359 172.099C69.4101 173.968 71.7338 174.848 72.9523 173.43L120.732 117.857C121.261 117.241 121.366 116.366 120.996 115.642L62.3881 1.08906C61.6452 -0.363018 59.57 -0.363026 58.8271 1.08906L0.219531 115.642ZM84.3135 94.7963C84.9703 96.1256 84.0031 97.6823 82.5204 97.6823H38.6948C37.2121 97.6823 36.2449 96.1256 36.9017 94.7963L58.8145 50.4487C59.5485 48.9634 61.6667 48.9634 62.4007 50.4487L84.3135 94.7963Z" fill="#1D1551"/>
</svg>
