<svg width="250" height="94" viewBox="0 0 250 94" fill="none" xmlns="http://www.w3.org/2000/svg">
<path d="M0.616829 61.064C0.244067 61.7893 0.348997 62.6683 0.882021 63.2855L23.819 89.8436C25.0392 91.2564 27.3584 90.3752 27.3324 88.5085L27.1536 75.6364C27.1466 75.134 26.9508 74.6526 26.605 74.288L18.8952 66.1579C17.6867 64.8834 18.5901 62.7817 20.3464 62.7817H43.6536C45.4099 62.7817 46.3133 64.8834 45.1048 66.1579L37.395 74.288C37.0492 74.6526 36.8534 75.134 36.8464 75.6364L36.6676 88.5085C36.6416 90.3752 38.9608 91.2564 40.181 89.8436L63.118 63.2855C63.651 62.6683 63.7559 61.7893 63.3832 61.064L33.7788 3.46117C33.0348 2.01344 30.9652 2.01344 30.2212 3.46116L0.616829 61.064ZM43.7499 49.3713C44.4098 50.7008 43.4426 52.2606 41.9584 52.2606H22.0416C20.5574 52.2606 19.5902 50.7008 20.2501 49.3713L30.2085 29.3083C30.9437 27.8272 33.0563 27.8272 33.7915 29.3083L43.7499 49.3713Z" fill="#1D1551"/>
<mask id="path-2-outside-1_86_153" maskUnits="userSpaceOnUse" x="63" y="38" width="164" height="40" fill="black">
<rect fill="white" x="63" y="38" width="164" height="40"/>
<path d="M80.8 44.48V77H74.8V44.48H64.9V39.5H90.7V44.48H80.8ZM102.998 60.62V72.02H119.498V77H96.9977V39.5H119.318L118.598 44.48H102.998V55.88H117.218V60.62H102.998ZM128.177 77V39.5H133.997L148.517 62.9C149.117 63.9 149.517 64.62 149.717 65.06C149.917 65.46 150.037 65.98 150.077 66.62H150.437V39.5H156.437V77H150.617L136.097 53.6C135.497 52.6 135.097 51.9 134.897 51.5C134.737 51.06 134.617 50.52 134.537 49.88H134.177V77H128.177ZM173.545 60.62V72.02H190.045V77H167.545V39.5H189.865L189.145 44.48H173.545V55.88H187.765V60.62H173.545ZM193.923 77L205.023 39.5H214.083L225.183 77H219.183L209.823 45.02H209.283L199.923 77H193.923ZM199.443 68.6V63.86H219.783V68.6H199.443Z"/>
</mask>
<path d="M80.8 44.48V77H74.8V44.48H64.9V39.5H90.7V44.48H80.8ZM102.998 60.62V72.02H119.498V77H96.9977V39.5H119.318L118.598 44.48H102.998V55.88H117.218V60.62H102.998ZM128.177 77V39.5H133.997L148.517 62.9C149.117 63.9 149.517 64.62 149.717 65.06C149.917 65.46 150.037 65.98 150.077 66.62H150.437V39.5H156.437V77H150.617L136.097 53.6C135.497 52.6 135.097 51.9 134.897 51.5C134.737 51.06 134.617 50.52 134.537 49.88H134.177V77H128.177ZM173.545 60.62V72.02H190.045V77H167.545V39.5H189.865L189.145 44.48H173.545V55.88H187.765V60.62H173.545ZM193.923 77L205.023 39.5H214.083L225.183 77H219.183L209.823 45.02H209.283L199.923 77H193.923ZM199.443 68.6V63.86H219.783V68.6H199.443Z" fill="#1D1551"/>
<path d="M80.8 44.48V43.48H79.8V44.48H80.8ZM80.8 77V78H81.8V77H80.8ZM74.8 77H73.8V78H74.8V77ZM74.8 44.48H75.8V43.48H74.8V44.48ZM64.9 44.48H63.9V45.48H64.9V44.48ZM64.9 39.5V38.5H63.9V39.5H64.9ZM90.7 39.5H91.7V38.5H90.7V39.5ZM90.7 44.48V45.48H91.7V44.48H90.7ZM80.8 44.48H79.8V77H80.8H81.8V44.48H80.8ZM80.8 77V76H74.8V77V78H80.8V77ZM74.8 77H75.8V44.48H74.8H73.8V77H74.8ZM74.8 44.48V43.48H64.9V44.48V45.48H74.8V44.48ZM64.9 44.48H65.9V39.5H64.9H63.9V44.48H64.9ZM64.9 39.5V40.5H90.7V39.5V38.5H64.9V39.5ZM90.7 39.5H89.7V44.48H90.7H91.7V39.5H90.7ZM90.7 44.48V43.48H80.8V44.48V45.48H90.7V44.48ZM102.998 60.62V59.62H101.998V60.62H102.998ZM102.998 72.02H101.998V73.02H102.998V72.02ZM119.498 72.02H120.498V71.02H119.498V72.02ZM119.498 77V78H120.498V77H119.498ZM96.9977 77H95.9977V78H96.9977V77ZM96.9977 39.5V38.5H95.9977V39.5H96.9977ZM119.318 39.5L120.307 39.6431L120.473 38.5H119.318V39.5ZM118.598 44.48V45.48H119.463L119.587 44.6231L118.598 44.48ZM102.998 44.48V43.48H101.998V44.48H102.998ZM102.998 55.88H101.998V56.88H102.998V55.88ZM117.218 55.88H118.218V54.88H117.218V55.88ZM117.218 60.62V61.62H118.218V60.62H117.218ZM102.998 60.62H101.998V72.02H102.998H103.998V60.62H102.998ZM102.998 72.02V73.02H119.498V72.02V71.02H102.998V72.02ZM119.498 72.02H118.498V77H119.498H120.498V72.02H119.498ZM119.498 77V76H96.9977V77V78H119.498V77ZM96.9977 77H97.9977V39.5H96.9977H95.9977V77H96.9977ZM96.9977 39.5V40.5H119.318V39.5V38.5H96.9977V39.5ZM119.318 39.5L118.328 39.3569L117.608 44.3369L118.598 44.48L119.587 44.6231L120.307 39.6431L119.318 39.5ZM118.598 44.48V43.48H102.998V44.48V45.48H118.598V44.48ZM102.998 44.48H101.998V55.88H102.998H103.998V44.48H102.998ZM102.998 55.88V56.88H117.218V55.88V54.88H102.998V55.88ZM117.218 55.88H116.218V60.62H117.218H118.218V55.88H117.218ZM117.218 60.62V59.62H102.998V60.62V61.62H117.218V60.62ZM128.177 77H127.177V78H128.177V77ZM128.177 39.5V38.5H127.177V39.5H128.177ZM133.997 39.5L134.846 38.9727L134.553 38.5H133.997V39.5ZM148.517 62.9L149.374 62.3855L149.37 62.3791L149.366 62.3727L148.517 62.9ZM149.717 65.06L148.806 65.4738L148.814 65.4907L148.822 65.5072L149.717 65.06ZM150.077 66.62L149.079 66.6824L149.137 67.62H150.077V66.62ZM150.437 66.62V67.62H151.437V66.62H150.437ZM150.437 39.5V38.5H149.437V39.5H150.437ZM156.437 39.5H157.437V38.5H156.437V39.5ZM156.437 77V78H157.437V77H156.437ZM150.617 77L149.767 77.5273L150.06 78H150.617V77ZM136.097 53.6L135.239 54.1145L135.243 54.1209L135.247 54.1273L136.097 53.6ZM134.897 51.5L133.957 51.8417L133.976 51.8958L134.002 51.9472L134.897 51.5ZM134.537 49.88L135.529 49.756L135.419 48.88H134.537V49.88ZM134.177 49.88V48.88H133.177V49.88H134.177ZM134.177 77V78H135.177V77H134.177ZM128.177 77H129.177V39.5H128.177H127.177V77H128.177ZM128.177 39.5V40.5H133.997V39.5V38.5H128.177V39.5ZM133.997 39.5L133.147 40.0273L147.667 63.4273L148.517 62.9L149.366 62.3727L134.846 38.9727L133.997 39.5ZM148.517 62.9L147.659 63.4145C148.259 64.4145 148.632 65.0911 148.806 65.4738L149.717 65.06L150.627 64.6462C150.401 64.1489 149.974 63.3855 149.374 62.3855L148.517 62.9ZM149.717 65.06L148.822 65.5072C148.942 65.747 149.044 66.1227 149.079 66.6824L150.077 66.62L151.075 66.5576C151.03 65.8373 150.891 65.173 150.611 64.6128L149.717 65.06ZM150.077 66.62V67.62H150.437V66.62V65.62H150.077V66.62ZM150.437 66.62H151.437V39.5H150.437H149.437V66.62H150.437ZM150.437 39.5V40.5H156.437V39.5V38.5H150.437V39.5ZM156.437 39.5H155.437V77H156.437H157.437V39.5H156.437ZM156.437 77V76H150.617V77V78H156.437V77ZM150.617 77L151.466 76.4727L136.946 53.0727L136.097 53.6L135.247 54.1273L149.767 77.5273L150.617 77ZM136.097 53.6L136.954 53.0855C136.353 52.0835 135.972 51.414 135.791 51.0528L134.897 51.5L134.002 51.9472C134.222 52.386 134.64 53.1165 135.239 54.1145L136.097 53.6ZM134.897 51.5L135.836 51.1583C135.71 50.8094 135.603 50.3474 135.529 49.756L134.537 49.88L133.544 50.004C133.63 50.6926 133.764 51.3106 133.957 51.8417L134.897 51.5ZM134.537 49.88V48.88H134.177V49.88V50.88H134.537V49.88ZM134.177 49.88H133.177V77H134.177H135.177V49.88H134.177ZM134.177 77V76H128.177V77V78H134.177V77ZM173.545 60.62V59.62H172.545V60.62H173.545ZM173.545 72.02H172.545V73.02H173.545V72.02ZM190.045 72.02H191.045V71.02H190.045V72.02ZM190.045 77V78H191.045V77H190.045ZM167.545 77H166.545V78H167.545V77ZM167.545 39.5V38.5H166.545V39.5H167.545ZM189.865 39.5L190.854 39.6431L191.02 38.5H189.865V39.5ZM189.145 44.48V45.48H190.01L190.134 44.6231L189.145 44.48ZM173.545 44.48V43.48H172.545V44.48H173.545ZM173.545 55.88H172.545V56.88H173.545V55.88ZM187.765 55.88H188.765V54.88H187.765V55.88ZM187.765 60.62V61.62H188.765V60.62H187.765ZM173.545 60.62H172.545V72.02H173.545H174.545V60.62H173.545ZM173.545 72.02V73.02H190.045V72.02V71.02H173.545V72.02ZM190.045 72.02H189.045V77H190.045H191.045V72.02H190.045ZM190.045 77V76H167.545V77V78H190.045V77ZM167.545 77H168.545V39.5H167.545H166.545V77H167.545ZM167.545 39.5V40.5H189.865V39.5V38.5H167.545V39.5ZM189.865 39.5L188.875 39.3569L188.155 44.3369L189.145 44.48L190.134 44.6231L190.854 39.6431L189.865 39.5ZM189.145 44.48V43.48H173.545V44.48V45.48H189.145V44.48ZM173.545 44.48H172.545V55.88H173.545H174.545V44.48H173.545ZM173.545 55.88V56.88H187.765V55.88V54.88H173.545V55.88ZM187.765 55.88H186.765V60.62H187.765H188.765V55.88H187.765ZM187.765 60.62V59.62H173.545V60.62V61.62H187.765V60.62ZM193.923 77L192.965 76.7162L192.585 78H193.923V77ZM205.023 39.5V38.5H204.277L204.065 39.2162L205.023 39.5ZM214.083 39.5L215.042 39.2162L214.83 38.5H214.083V39.5ZM225.183 77V78H226.522L226.142 76.7162L225.183 77ZM219.183 77L218.224 77.2809L218.434 78H219.183V77ZM209.823 45.02L210.783 44.7391L210.573 44.02H209.823V45.02ZM209.283 45.02V44.02H208.534L208.324 44.7391L209.283 45.02ZM199.923 77V78H200.673L200.883 77.2809L199.923 77ZM199.443 68.6H198.443V69.6H199.443V68.6ZM199.443 63.86V62.86H198.443V63.86H199.443ZM219.783 63.86H220.783V62.86H219.783V63.86ZM219.783 68.6V69.6H220.783V68.6H219.783ZM193.923 77L194.882 77.2838L205.982 39.7838L205.023 39.5L204.065 39.2162L192.965 76.7162L193.923 77ZM205.023 39.5V40.5H214.083V39.5V38.5H205.023V39.5ZM214.083 39.5L213.125 39.7838L224.225 77.2838L225.183 77L226.142 76.7162L215.042 39.2162L214.083 39.5ZM225.183 77V76H219.183V77V78H225.183V77ZM219.183 77L220.143 76.7191L210.783 44.7391L209.823 45.02L208.864 45.3009L218.224 77.2809L219.183 77ZM209.823 45.02V44.02H209.283V45.02V46.02H209.823V45.02ZM209.283 45.02L208.324 44.7391L198.964 76.7191L199.923 77L200.883 77.2809L210.243 45.3009L209.283 45.02ZM199.923 77V76H193.923V77V78H199.923V77ZM199.443 68.6H200.443V63.86H199.443H198.443V68.6H199.443ZM199.443 63.86V64.86H219.783V63.86V62.86H199.443V63.86ZM219.783 63.86H218.783V68.6H219.783H220.783V63.86H219.783ZM219.783 68.6V67.6H199.443V68.6V69.6H219.783V68.6Z" fill="#1D1551" mask="url(#path-2-outside-1_86_153)"/>
</svg>
