<svg width="227" height="89" viewBox="0 0 227 89" fill="none" xmlns="http://www.w3.org/2000/svg">
<path fill-rule="evenodd" clip-rule="evenodd" d="M29.8255 1.08572C30.5696 -0.361921 32.6391 -0.361892 33.3832 1.08572L62.9877 58.6883C63.3604 59.4136 63.2551 60.2928 62.722 60.9099L39.7855 87.4685C38.5653 88.8811 36.2463 87.9999 36.2718 86.1336L36.4505 73.2615C36.4575 72.7591 36.6537 72.2775 36.9994 71.9129L44.7093 63.782C45.9174 62.5076 45.0142 60.4062 43.2582 60.406H19.9505C18.1946 60.4063 17.2914 62.5076 18.4994 63.782L26.2093 71.9129C26.555 72.2775 26.7512 72.7591 26.7582 73.2615L26.9369 86.1336C26.9625 87.9999 24.6434 88.8812 23.4232 87.4685L0.486674 60.9099C-0.0463504 60.2928 -0.151713 59.4136 0.221049 58.6883L29.8255 1.08572ZM33.3959 26.9334C32.6607 25.4523 30.548 25.4523 29.8128 26.9334L19.8548 46.9959C19.195 48.3253 20.1617 49.8854 21.6459 49.8855H41.5628C43.047 49.8855 44.0137 48.3253 43.3539 46.9959L33.3959 26.9334Z" fill="#FBFBFE"/>
<path fill-rule="evenodd" clip-rule="evenodd" d="M91.305 43.1053H81.4046V75.6248H73.4046V43.1053H63.5052V36.1248H91.305V43.1053Z" fill="#FBFBFE"/>
<path fill-rule="evenodd" clip-rule="evenodd" d="M119.192 42.2478L119.069 43.1053H103.603V52.5047H117.823V59.2449H103.603V68.6443H120.103V75.6248H95.6029V36.1248H120.077L119.192 42.2478Z" fill="#FBFBFE"/>
<path fill-rule="evenodd" clip-rule="evenodd" d="M134.452 36.5974L148.971 59.9978L148.975 60.0037L148.979 60.0105C149 60.0458 149.021 60.0813 149.041 60.116V36.1248H157.041V75.6248H149.665L149.371 75.1521L134.852 51.7517L134.848 51.7459L134.844 51.739C134.823 51.7038 134.802 51.6682 134.782 51.6336V75.6248H126.782V36.1248H134.158L134.452 36.5974Z" fill="#FBFBFE"/>
<path fill-rule="evenodd" clip-rule="evenodd" d="M189.739 42.2478L189.616 43.1053H174.15V52.5047H188.369V59.2449H174.15V68.6443H190.65V75.6248H166.15V36.1248H190.624L189.739 42.2478Z" fill="#FBFBFE"/>
<path fill-rule="evenodd" clip-rule="evenodd" d="M226.127 75.6248H218.039L215.58 67.2244H202.736L200.278 75.6248H192.19L203.881 36.1248H214.435L226.127 75.6248ZM204.708 60.4851H213.608L209.158 45.282L204.708 60.4851Z" fill="#FBFBFE"/>
</svg>
