<svg width="300" height="266" viewBox="0 0 300 266" fill="none" xmlns="http://www.w3.org/2000/svg">
<rect width="300" height="266" fill="url(#paint0_linear_86_543)"/>
<path d="M99.425 78.875C125.521 78.875 146.675 100.735 146.675 127.7C146.675 154.666 125.521 176.525 99.425 176.525C73.3296 176.525 52.1751 154.666 52.175 127.7C52.175 100.735 73.3296 78.8751 99.425 78.875Z" fill="#FBFBFE"/>
<path d="M99.425 78.875C125.521 78.875 146.675 100.735 146.675 127.7C146.675 154.666 125.521 176.525 99.425 176.525C73.3296 176.525 52.1751 154.666 52.175 127.7C52.175 100.735 73.3296 78.8751 99.425 78.875Z" stroke="#A6A6A6"/>
<path d="M200.225 78.875C226.321 78.875 247.475 100.735 247.475 127.7C247.475 154.666 226.321 176.525 200.225 176.525C174.13 176.525 152.975 154.666 152.975 127.7C152.975 100.735 174.13 78.8751 200.225 78.875Z" fill="#FBFBFE"/>
<path d="M200.225 78.875C226.321 78.875 247.475 100.735 247.475 127.7C247.475 154.666 226.321 176.525 200.225 176.525C174.13 176.525 152.975 154.666 152.975 127.7C152.975 100.735 174.13 78.8751 200.225 78.875Z" stroke="#A6A6A6"/>
<rect x="126.2" y="143.45" width="22.0501" height="31.5001" rx="11.025" transform="rotate(180 126.2 143.45)" fill="#1D1551"/>
<rect x="195.501" y="143.45" width="22.0501" height="31.5001" rx="11.025" transform="rotate(180 195.501 143.45)" fill="#1D1551"/>
<path d="M150.825 185.398C150.207 185.755 149.444 185.755 148.825 185.398L131.737 175.532C129.965 174.509 130.691 171.8 132.737 171.8H166.913C168.959 171.8 169.685 174.509 167.913 175.532L150.825 185.398Z" fill="url(#paint1_linear_86_543)"/>
<path d="M148.592 150.717C149.316 150.149 150.334 150.149 151.059 150.717L173.908 168.62C175.404 169.792 174.575 172.194 172.674 172.194H126.977C125.076 172.194 124.247 169.792 125.743 168.62L148.592 150.717Z" fill="#E00070"/>
<defs>
<linearGradient id="paint0_linear_86_543" x1="150" y1="0" x2="150" y2="266" gradientUnits="userSpaceOnUse">
<stop stop-color="#1D1551"/>
<stop offset="1" stop-color="#422FB7"/>
</linearGradient>
<linearGradient id="paint1_linear_86_543" x1="149.825" y1="185.975" x2="149.825" y2="167.075" gradientUnits="userSpaceOnUse">
<stop stop-color="#E00070"/>
<stop offset="1" stop-color="#7A003D"/>
</linearGradient>
</defs>
</svg>
