<svg width="1065" height="1006" viewBox="0 0 1065 1006" fill="none" xmlns="http://www.w3.org/2000/svg">
<path d="M537.684 21.6597C542.219 9.36606 557.712 5.50571 567.486 14.228L567.485 14.229L570.897 17.27L575.46 17.4507L575.461 17.4497C588.552 17.9644 597.011 31.5004 591.738 43.4927L591.739 43.4937L589.898 47.6802L591.139 52.0737L591.14 52.0757C591.459 53.209 591.668 54.3545 591.77 55.4995L591.807 55.9907L591.849 56.7778C591.887 57.5854 591.913 58.4159 591.936 58.9399C591.973 59.7979 592.016 60.401 592.081 60.8882C592.112 61.1221 592.143 61.2879 592.168 61.3979C604.791 76.8153 618.786 94.6598 629.162 110.003C656.442 150.344 684.977 212.263 698.426 242.787H698.427C698.984 244.053 699.416 245.337 699.731 246.627C723.406 250.787 741.397 271.452 741.398 296.318V296.319C741.398 296.492 741.395 296.664 741.394 296.836L816.346 231.688C832.416 217.72 857.583 226.385 861.646 247.287L881.221 348.003C882.305 353.583 881.653 359.017 879.674 363.806C879.466 364.309 879.372 364.688 879.336 364.934C879.319 365.052 879.318 365.122 879.318 365.151L879.312 365.123C880.18 369.314 880.641 373.656 880.642 378.103V490.226L914.981 464.352L915.786 463.753C949.7 438.865 997.313 445.555 1023.05 478.828L1023.66 479.625V479.625L1032.06 490.776L1032.66 491.581C1057.75 525.763 1050.75 573.863 1016.79 599.455L929.319 665.366C914.756 676.339 897.558 681.402 880.642 680.958V801.583C880.64 844.44 845.897 879.185 803.039 879.185H790.332L790.32 880.656V880.657C790.215 893.414 779.807 903.73 767.054 903.73H767.053C761.947 903.729 757.238 902.075 753.425 899.276C749.582 902.076 744.854 903.73 739.75 903.73H739.749C734.643 903.729 729.935 902.075 726.122 899.276C722.281 902.075 717.556 903.729 712.453 903.73H712.451C699.636 903.73 689.306 893.318 689.411 880.5L689.422 879.185H509.152L509.093 886.122C508.988 898.675 498.91 908.869 486.428 909.185L485.831 909.192C480.725 909.192 476.014 907.538 472.199 904.738C468.358 907.537 463.632 909.191 458.528 909.192H458.527C453.421 909.192 448.711 907.537 444.896 904.738C441.055 907.537 436.329 909.191 431.226 909.192H431.225C418.409 909.192 408.078 898.78 408.184 885.962L408.22 881.442C394.986 890.921 376.005 893.863 360.773 883.358L360.772 883.357C312.475 850.041 232.779 796.924 186.726 775.947C153.629 760.871 122.415 749.258 98.793 741.229C73.0173 732.468 63.8873 699.651 80.8506 678.636C88.1144 669.638 95.2395 660.229 100.549 652C105.215 644.767 111.991 629.819 119.321 611.813C126.536 594.09 133.965 574.222 139.954 557.73L140.155 557.189C148.82 534.4 176.93 525.736 196.953 539.784C211.202 549.78 229.542 562.392 249.801 575.735L280.189 560.916C291.58 555.36 303.692 552.843 315.579 553.061V378.103C315.579 375.306 315.761 372.551 316.111 369.848C316.109 369.817 316.101 369.728 316.059 369.575C315.978 369.284 315.803 368.852 315.475 368.32C312.191 362.991 310.662 356.449 311.754 349.55V349.549L327.809 248.208C331.139 227.179 355.985 217.634 372.535 231.036H372.536L449.452 293.325C450.992 267.037 472.658 246.154 499.265 245.868C499.376 245.776 499.534 245.637 499.736 245.424C500.661 244.453 501.674 242.863 502.607 240.917C502.693 240.738 502.782 240.56 502.873 240.382V240.381C515.307 216.029 534.104 175.801 540.398 144.77C544.13 126.373 545.177 102.676 545.093 81.2681C544.968 81.0726 544.727 80.7284 544.282 80.2183C543.666 79.5113 542.93 78.7761 541.922 77.7798C541.018 76.8868 539.792 75.6838 538.695 74.4233C536.71 72.1418 535.26 69.3396 534.573 66.1812L533.601 61.7124L530.017 58.8862H530.016C519.728 50.7755 520.84 34.854 532.151 28.2505L536.104 25.9399L537.683 21.6606L537.684 21.6597Z" fill="#80A4FF" stroke="#80A4FF" stroke-width="19"/>
<path d="M1004.68 596.034C1037.8 571.079 1044.42 524.002 1019.46 490.884V490.884C994.504 457.767 947.426 451.151 914.308 476.106L832.918 537.437C801.691 560.968 795.452 605.357 818.984 636.584L824.142 643.43C847.674 674.657 892.065 680.895 923.292 657.365L1004.68 596.034Z" fill="url(#paint0_linear_222_2997)"/>
<path d="M868.679 404.832C868.679 360.649 832.862 324.832 788.679 324.832H402.613C358.43 324.832 322.613 360.649 322.613 404.832V790.891C322.613 835.074 358.43 870.891 402.613 870.891H788.679C832.862 870.891 868.679 835.074 868.679 790.891V404.832Z" fill="url(#paint1_linear_222_2997)"/>
<path d="M363.877 239.452C353.108 230.732 336.938 236.939 334.771 250.625L318.632 352.517C316.465 366.202 329.925 377.103 342.861 372.137L439.173 335.167C452.109 330.201 454.818 313.094 444.05 304.374L363.877 239.452Z" fill="url(#paint2_linear_222_2997)"/>
<path d="M849.802 250.031C847.158 236.43 830.781 230.791 820.324 239.881L742.465 307.562C732.008 316.652 735.312 333.654 748.414 338.166L845.957 371.752C859.058 376.263 872.13 364.9 869.487 351.298L849.802 250.031Z" fill="url(#paint3_linear_222_2997)"/>
<rect width="27.3033" height="40.9544" rx="13.6517" transform="matrix(-1 0 0.00824002 -0.999966 750.942 895.439)" fill="#1D1551"/>
<rect width="27.3033" height="40.9544" rx="13.6517" transform="matrix(-1 0 0.00824002 -0.999966 723.64 895.439)" fill="#1D1551"/>
<rect width="27.3033" height="40.9544" rx="13.6517" transform="matrix(-1 0 0.00824002 -0.999966 778.246 895.439)" fill="#1D1551"/>
<path d="M723.975 841.308C708.897 841.432 696.673 853.757 696.673 868.836V868.836L778.581 868.161V868.161C778.581 853.082 766.357 840.959 751.279 841.083L723.975 841.308Z" fill="#1D1551"/>
<rect width="27.3033" height="40.9544" rx="13.6517" transform="matrix(-1 0 0.00824002 -0.999966 469.715 900.899)" fill="#1D1551"/>
<rect width="27.3033" height="40.9544" rx="13.6517" transform="matrix(-1 0 0.00824002 -0.999966 442.412 900.899)" fill="#1D1551"/>
<rect width="27.3033" height="40.9544" rx="13.6517" transform="matrix(-1 0 0.00824002 -0.999966 497.021 900.899)" fill="#1D1551"/>
<path d="M442.75 846.768C427.672 846.892 415.448 859.217 415.448 874.296V874.296L497.355 873.621V873.621C497.355 858.542 485.132 846.419 470.053 846.543L442.75 846.768Z" fill="#1D1551"/>
<path d="M711.36 382.219C651.597 382.219 603.15 432.281 603.149 494.036C603.149 555.79 651.597 605.852 711.36 605.852C771.124 605.852 819.571 555.79 819.571 494.036C819.571 432.281 771.124 382.219 711.36 382.219Z" fill="#FBFBFE"/>
<path d="M711.36 382.219C651.597 382.219 603.15 432.281 603.149 494.036C603.149 555.79 651.597 605.852 711.36 605.852C771.124 605.852 819.571 555.79 819.571 494.036C819.571 432.281 771.124 382.219 711.36 382.219Z" stroke="#A6A6A6"/>
<path d="M480.51 382.219C420.747 382.219 372.299 432.281 372.299 494.036C372.299 555.79 420.747 605.852 480.51 605.852C540.274 605.852 588.721 555.79 588.721 494.036C588.721 432.281 540.273 382.219 480.51 382.219Z" fill="#FBFBFE"/>
<path d="M480.51 382.219C420.747 382.219 372.299 432.281 372.299 494.036C372.299 555.79 420.747 605.852 480.51 605.852C540.274 605.852 588.721 555.79 588.721 494.036C588.721 432.281 540.273 382.219 480.51 382.219Z" stroke="#A6A6A6"/>
<rect width="50.4985" height="72.1398" rx="25.2493" transform="matrix(1 0 0 -1 650.041 530.105)" fill="#1D1551"/>
<rect width="50.4985" height="72.1398" rx="25.2493" transform="matrix(1 0 0 -1 491.333 530.105)" fill="#1D1551"/>
<path d="M591.936 625.185C594.411 626.614 597.461 626.614 599.936 625.185L626.307 609.96C633.396 605.867 630.492 595.032 622.307 595.032H569.565C561.38 595.032 558.476 605.867 565.565 609.96L591.936 625.185Z" fill="url(#paint4_linear_222_2997)"/>
<path d="M600.868 548.399C597.971 546.129 593.898 546.129 591 548.399L548.582 581.636C542.597 586.325 545.913 595.933 553.516 595.933H638.353C645.956 595.933 649.271 586.325 643.287 581.636L600.868 548.399Z" fill="#E00070"/>
<path d="M479.026 744.885C491.661 728.752 484.969 704.469 465.733 697.406C434.309 685.868 390.792 669.092 359.024 653.702C302.956 626.54 231.588 578.555 190.971 550.122C174.915 538.882 152.32 546.004 145.611 564.419C133.615 597.347 116.286 642.527 106.072 658.359C100.96 666.283 94.3404 675.102 87.6068 683.536C73.9818 700.6 81.4906 727.297 102.145 734.385C125.628 742.443 156.019 753.852 188.202 768.511C234.325 789.519 312.707 841.635 361.076 874.933C379.73 887.775 407.458 875.743 414.067 854.082C416.033 847.638 418.353 840.766 421.085 833.582C430.106 809.869 457.717 772.092 479.026 744.885Z" fill="url(#paint5_linear_222_2997)"/>
<path d="M189.73 615.614C152.459 633.792 136.982 678.741 155.16 716.012V716.012C173.338 753.283 218.289 768.76 255.559 750.582L345.832 706.554C380.683 689.556 395.156 647.525 378.158 612.674L376.28 608.824C357.958 571.26 312.654 555.66 275.09 573.981L189.73 615.614Z" fill="url(#paint6_linear_222_2997)"/>
<path d="M517.05 391.701C513.162 398.368 517.97 406.74 525.688 406.74H557.935C562.314 406.74 566.183 403.891 567.484 399.709L576.793 369.772C577.754 366.703 582.335 367.766 581.846 370.944L577.202 401.092C576.744 404.062 579.042 406.74 582.046 406.74H622.544C626.173 406.74 628.948 403.505 628.395 399.919L624.287 373.244C623.655 369.141 629.509 367.676 630.885 371.592L638.471 399.374C639.658 403.723 643.609 406.74 648.118 406.74H681.99C689.708 406.74 694.517 398.368 690.628 391.701L612.478 257.73C608.619 251.115 599.061 251.114 595.202 257.729L517.05 391.701Z" fill="url(#paint7_linear_222_2997)"/>
<path d="M555.92 37.2915C554.024 35.1092 550.427 36.6291 550.617 39.5142C551.987 60.3357 554.406 112.579 547.249 147.865C538.786 189.59 509.164 245.913 500.368 262.045C499.268 264.064 500.738 266.532 503.037 266.532H690.839C692.978 266.532 694.428 264.367 693.591 262.399C685.556 243.51 651.106 164.262 618.83 116.534C600.102 88.8399 568.919 52.2557 555.92 37.2915Z" fill="url(#paint8_linear_222_2997)"/>
<path opacity="0.8" d="M649.775 184.678C648.864 182.292 645.578 182.062 644.345 184.299L642.042 188.473C641.7 189.095 641.148 189.575 640.484 189.828L636.03 191.527C633.643 192.437 633.414 195.723 635.65 196.957L639.825 199.259C640.447 199.602 640.927 200.154 641.179 200.817L642.878 205.271C643.789 207.658 647.075 207.888 648.308 205.651L650.611 201.476C650.953 200.855 651.505 200.375 652.169 200.122L656.623 198.423C659.01 197.513 659.24 194.227 657.003 192.993L652.828 190.691C652.206 190.348 651.727 189.796 651.474 189.133L649.775 184.678Z" fill="#FBFBFE"/>
<path opacity="0.8" d="M537.831 217.441C536.921 215.055 533.635 214.825 532.401 217.062L530.099 221.236C529.756 221.858 529.204 222.338 528.541 222.591L524.087 224.29C521.7 225.2 521.47 228.486 523.707 229.72L527.882 232.022C528.503 232.365 528.983 232.917 529.236 233.58L530.935 238.034C531.845 240.421 535.132 240.651 536.365 238.414L538.667 234.239C539.01 233.618 539.562 233.138 540.225 232.885L544.68 231.186C547.066 230.276 547.296 226.99 545.059 225.756L540.885 223.454C540.263 223.111 539.783 222.559 539.53 221.896L537.831 217.441Z" fill="#FBFBFE"/>
<path opacity="0.8" d="M610.707 193.35C609.797 190.963 606.511 190.734 605.277 192.97L604.975 193.518C604.633 194.14 604.081 194.619 603.417 194.872L602.833 195.095C600.446 196.005 600.217 199.292 602.453 200.525L603.001 200.827C603.623 201.17 604.102 201.722 604.355 202.385L604.578 202.969C605.488 205.356 608.775 205.586 610.008 203.349L610.31 202.802C610.653 202.18 611.205 201.7 611.868 201.447L612.453 201.224C614.839 200.314 615.069 197.028 612.832 195.794L612.285 195.492C611.663 195.15 611.183 194.598 610.93 193.934L610.707 193.35Z" fill="#FBFBFE"/>
<path opacity="0.8" d="M561.563 207.003C560.653 204.616 557.367 204.386 556.133 206.623L555.831 207.171C555.489 207.792 554.937 208.272 554.273 208.525L553.689 208.748C551.302 209.658 551.073 212.944 553.309 214.178L553.857 214.48C554.479 214.823 554.958 215.375 555.211 216.038L555.434 216.622C556.344 219.009 559.631 219.239 560.864 217.002L561.166 216.454C561.509 215.833 562.061 215.353 562.724 215.1L563.308 214.877C565.695 213.967 565.925 210.68 563.688 209.447L563.141 209.145C562.519 208.802 562.039 208.25 561.786 207.587L561.563 207.003Z" fill="#FBFBFE"/>
<path opacity="0.8" d="M583.409 130.554C582.499 128.167 579.212 127.937 577.979 130.174L577.677 130.722C577.334 131.343 576.782 131.823 576.119 132.076L575.535 132.299C573.148 133.209 572.918 136.495 575.155 137.729L575.703 138.031C576.324 138.374 576.804 138.926 577.057 139.589L577.28 140.173C578.19 142.56 581.476 142.79 582.71 140.553L583.012 140.005C583.355 139.384 583.907 138.904 584.57 138.651L585.154 138.428C587.541 137.518 587.771 134.232 585.534 132.998L584.986 132.696C584.365 132.353 583.885 131.801 583.632 131.138L583.409 130.554Z" fill="#FBFBFE"/>
<path opacity="0.8" d="M657.127 239.765C656.217 237.378 652.93 237.148 651.697 239.385L651.395 239.933C651.052 240.554 650.5 241.034 649.837 241.287L649.253 241.51C646.866 242.42 646.636 245.707 648.873 246.94L649.42 247.242C650.042 247.585 650.522 248.137 650.775 248.8L650.998 249.384C651.908 251.771 655.194 252.001 656.428 249.764L656.73 249.216C657.072 248.595 657.624 248.115 658.288 247.862L658.872 247.639C661.259 246.729 661.488 243.443 659.252 242.209L658.704 241.907C658.082 241.564 657.603 241.012 657.35 240.349L657.127 239.765Z" fill="#FBFBFE"/>
<path opacity="0.8" d="M556.103 253.417C555.193 251.03 551.907 250.801 550.673 253.037L550.371 253.585C550.029 254.206 549.477 254.686 548.813 254.939L548.229 255.162C545.842 256.072 545.613 259.359 547.849 260.592L548.397 260.894C549.019 261.237 549.498 261.789 549.751 262.452L549.974 263.036C550.884 265.423 554.171 265.653 555.404 263.416L555.706 262.869C556.049 262.247 556.601 261.767 557.264 261.514L557.849 261.291C560.235 260.381 560.465 257.095 558.228 255.861L557.681 255.559C557.059 255.217 556.579 254.664 556.326 254.001L556.103 253.417Z" fill="#FBFBFE"/>
<path opacity="0.8" d="M618.845 243.204C619.807 240.838 617.56 238.428 615.133 239.223L610.602 240.706C609.927 240.927 609.196 240.901 608.539 240.634L604.122 238.838C601.756 237.876 599.346 240.123 600.141 242.551L601.624 247.082C601.845 247.756 601.819 248.487 601.552 249.145L599.757 253.561C598.795 255.928 601.041 258.337 603.469 257.542L608 256.059C608.675 255.838 609.406 255.864 610.063 256.131L614.479 257.927C616.846 258.889 619.255 256.642 618.46 254.214L616.977 249.683C616.757 249.009 616.782 248.278 617.049 247.62L618.845 243.204Z" fill="#FBFBFE"/>
<path opacity="0.8" d="M579.194 168.734C581.096 167.029 580.133 163.879 577.603 163.529L572.88 162.875C572.177 162.778 571.531 162.435 571.057 161.906L567.875 158.356C566.17 156.454 563.019 157.418 562.669 159.948L562.016 164.67C561.919 165.373 561.576 166.019 561.047 166.493L557.497 169.675C555.595 171.38 556.558 174.531 559.089 174.881L563.811 175.534C564.514 175.631 565.16 175.975 565.634 176.503L568.816 180.053C570.521 181.955 573.672 180.992 574.022 178.462L574.675 173.739C574.772 173.036 575.116 172.39 575.644 171.917L579.194 168.734Z" fill="#FBFBFE"/>
<path opacity="0.8" d="M623.376 132.563C623.956 130.075 621.36 128.047 619.087 129.212L614.844 131.385C614.212 131.709 613.486 131.798 612.795 131.637L608.152 130.554C605.664 129.974 603.636 132.57 604.801 134.844L606.974 139.087C607.298 139.718 607.387 140.444 607.226 141.136L606.143 145.779C605.563 148.266 608.159 150.295 610.433 149.13L614.676 146.956C615.307 146.633 616.033 146.544 616.725 146.705L621.368 147.787C623.855 148.367 625.884 145.771 624.719 143.498L622.545 139.255C622.222 138.623 622.132 137.897 622.294 137.206L623.376 132.563Z" fill="#FBFBFE"/>
<path opacity="0.8" d="M576.381 102.368C578.55 101.019 578.148 97.7489 575.717 96.9648L571.18 95.5013C570.504 95.2834 569.928 94.8331 569.553 94.2304L567.036 90.1818C565.687 88.0126 562.417 88.4141 561.633 90.8451L560.17 95.3824C559.952 96.0579 559.501 96.6343 558.899 97.0091L554.85 99.5267C552.681 100.876 553.082 104.145 555.513 104.929L560.051 106.393C560.726 106.611 561.303 107.061 561.678 107.664L564.195 111.712C565.544 113.882 568.814 113.48 569.598 111.049L571.061 106.512C571.279 105.836 571.729 105.26 572.332 104.885L576.381 102.368Z" fill="#FBFBFE"/>
<path d="M557.515 21.4664C553.306 17.7099 546.636 19.3731 544.683 24.6658L542.366 30.9453C541.724 32.6872 540.495 34.1513 538.891 35.0866L533.109 38.4586C528.236 41.3008 527.757 48.1588 532.187 51.6516L537.443 55.7953C538.901 56.9448 539.914 58.5657 540.308 60.3801L541.728 66.9207C542.925 72.4338 549.3 75.0091 553.99 71.875L559.556 68.1566C561.1 67.1252 562.954 66.6628 564.801 66.8487L571.461 67.5191C577.074 68.0842 581.493 62.8179 579.962 57.3881L578.145 50.9463C577.642 49.1593 577.775 47.2526 578.523 45.5532L581.218 39.4269C583.49 34.2631 579.847 28.433 574.21 28.2113L567.522 27.9483C565.666 27.8754 563.894 27.1594 562.509 25.9232L557.515 21.4664Z" fill="url(#paint9_radial_222_2997)"/>
<rect width="273.033" height="81.9089" rx="40.9544" transform="matrix(-1 0 0 1 729.434 256.574)" fill="url(#paint10_linear_222_2997)"/>
<defs>
<linearGradient id="paint0_linear_222_2997" x1="1019.46" y1="490.884" x2="821.566" y2="640.011" gradientUnits="userSpaceOnUse">
<stop stop-color="#1D1551"/>
<stop offset="1" stop-color="#422FB7"/>
</linearGradient>
<linearGradient id="paint1_linear_222_2997" x1="595.646" y1="324.832" x2="595.646" y2="870.891" gradientUnits="userSpaceOnUse">
<stop stop-color="#1D1551"/>
<stop offset="1" stop-color="#422FB7"/>
</linearGradient>
<linearGradient id="paint2_linear_222_2997" x1="339.648" y1="219.832" x2="408.139" y2="398.259" gradientUnits="userSpaceOnUse">
<stop stop-color="#1D1551"/>
<stop offset="1" stop-color="#422FB7"/>
</linearGradient>
<linearGradient id="paint3_linear_222_2997" x1="843.853" y1="219.428" x2="781.631" y2="400.136" gradientUnits="userSpaceOnUse">
<stop stop-color="#1D1551"/>
<stop offset="1" stop-color="#422FB7"/>
</linearGradient>
<linearGradient id="paint4_linear_222_2997" x1="595.936" y1="627.495" x2="595.936" y2="584.211" gradientUnits="userSpaceOnUse">
<stop stop-color="#E00070"/>
<stop offset="1" stop-color="#7A003D"/>
</linearGradient>
<linearGradient id="paint5_linear_222_2997" x1="229.855" y1="812.303" x2="332.398" y2="619.445" gradientUnits="userSpaceOnUse">
<stop stop-color="white"/>
<stop offset="1" stop-color="#B2B8FF"/>
</linearGradient>
<linearGradient id="paint6_linear_222_2997" x1="155.16" y1="716.012" x2="376.019" y2="608.29" gradientUnits="userSpaceOnUse">
<stop stop-color="#1D1551"/>
<stop offset="1" stop-color="#422FB7"/>
</linearGradient>
<linearGradient id="paint7_linear_222_2997" x1="603.839" y1="242.922" x2="603.839" y2="406.74" gradientUnits="userSpaceOnUse">
<stop stop-color="#1D1551"/>
<stop offset="1" stop-color="#422FB7"/>
</linearGradient>
<linearGradient id="paint8_linear_222_2997" x1="596.914" y1="36.2563" x2="596.914" y2="266.532" gradientUnits="userSpaceOnUse">
<stop stop-color="#487CFE"/>
<stop offset="1" stop-color="#422FB7"/>
</linearGradient>
<radialGradient id="paint9_radial_222_2997" cx="0" cy="0" r="1" gradientTransform="matrix(8.25659 33.1149 33.1154 -8.25648 557.006 46.7584)" gradientUnits="userSpaceOnUse">
<stop stop-color="#FFD044"/>
<stop offset="1" stop-color="#FFBF00"/>
</radialGradient>
<linearGradient id="paint10_linear_222_2997" x1="136.517" y1="0" x2="136.517" y2="81.9089" gradientUnits="userSpaceOnUse">
<stop stop-color="#FBFBFE"/>
<stop offset="1" stop-color="#B9B9E7"/>
</linearGradient>
</defs>
</svg>
