<svg width="489" height="478" viewBox="0 0 489 478" fill="none" xmlns="http://www.w3.org/2000/svg">
<mask id="path-1-outside-1_222_968" maskUnits="userSpaceOnUse" x="42.8772" y="62.2945" width="360" height="361" fill="black">
<rect fill="white" x="42.8772" y="62.2945" width="360" height="361"/>
<path d="M220.852 381.927C225.858 381.968 229.993 385.72 230.652 390.551C230.736 390.905 230.786 391.273 230.789 391.651L230.829 396.599C230.851 399.331 228.654 401.546 225.922 401.546C223.19 401.546 220.957 399.33 220.934 396.599C220.956 399.331 218.759 401.546 216.027 401.546C213.295 401.546 211.062 399.33 211.039 396.599C211.061 399.331 208.864 401.546 206.132 401.546C205.577 401.546 205.044 401.449 204.545 401.281L207.784 403.395C209.091 404.249 208.587 406.272 207.032 406.411L201.721 406.889C201.035 406.95 200.46 407.432 200.28 408.097L198.888 413.245C198.481 414.752 196.399 414.898 195.786 413.462L193.692 408.558C193.421 407.925 192.784 407.526 192.096 407.56L186.77 407.829C185.211 407.906 184.43 405.973 185.605 404.946L189.622 401.438C190.141 400.985 190.323 400.257 190.078 399.613L188.177 394.63C187.621 393.172 189.219 391.831 190.559 392.631L195.137 395.368C195.728 395.721 196.477 395.668 197.013 395.236L201.104 391.939L201.103 391.659H201.063C201.063 386.195 205.493 381.802 210.957 381.846L220.852 381.927Z"/>
<path d="M307.814 378.159C309.046 377.201 310.794 378.337 310.42 379.852L308.635 387.083C308.469 387.752 308.739 388.454 309.31 388.841L315.475 393.02C316.767 393.896 316.227 395.911 314.67 396.023L307.24 396.558C306.553 396.608 305.969 397.081 305.778 397.743L303.71 404.899C303.276 406.399 301.192 406.508 300.604 405.062L297.798 398.16C297.539 397.522 296.909 397.114 296.22 397.137L288.776 397.379C287.216 397.43 286.468 395.484 287.661 394.478L293.357 389.676C293.884 389.232 294.078 388.507 293.844 387.859L291.311 380.853C290.781 379.385 292.402 378.072 293.728 378.896L300.054 382.83C300.639 383.193 301.389 383.154 301.933 382.732L307.814 378.159Z"/>
<path d="M138.475 358.608C139.542 357.47 141.447 358.318 141.314 359.873L140.868 365.127C140.809 365.814 141.184 366.464 141.808 366.757L146.582 368.997C147.995 369.659 147.777 371.733 146.257 372.088L141.122 373.287C140.451 373.443 139.947 374.001 139.862 374.685L139.383 378.504L158.781 377.489C160.045 377.422 160.908 378.751 160.333 379.88L148.28 403.537C147.705 404.665 146.124 404.747 145.434 403.685L130.973 381.419C130.283 380.357 131.002 378.945 132.266 378.879L135.061 378.731L133.441 376.049C133.085 375.459 132.398 375.154 131.722 375.284L126.543 376.279C125.01 376.573 123.968 374.768 124.989 373.587L128.439 369.599C128.89 369.078 128.969 368.331 128.636 367.727L126.09 363.109C125.336 361.742 126.732 360.192 128.171 360.799L133.03 362.849C133.664 363.116 134.398 362.961 134.869 362.458L138.475 358.608Z"/>
<path d="M247.418 71.3258L284.278 78.4906C285.522 78.7323 286.036 80.2293 285.206 81.1853L263.454 106.207C263.921 106.44 264.346 106.802 264.677 107.309C265.394 108.408 266.72 108.944 268 108.652C268.266 108.592 268.526 108.564 268.776 108.567L270.929 104.683C273.385 100.252 279.718 100.143 282.328 104.486L302.143 137.463C303.142 139.125 303.304 140.963 302.845 142.603C304.511 144.442 305.86 146.625 306.761 149.101L320.336 186.4C319.822 179.772 323.597 173.292 330.089 170.669C334.523 168.878 339.294 169.263 343.223 171.319C350.812 168.786 359.442 169.608 366.673 174.304C372.769 178.263 376.753 184.25 378.318 190.803L378.912 191.46C379.837 192.482 381.299 192.818 382.578 192.305L388.378 189.977C391.276 188.814 394.013 191.963 392.458 194.67L389.345 200.09C388.659 201.285 388.79 202.781 389.673 203.839L393.681 208.637C395.681 211.033 393.533 214.608 390.478 213.967L384.361 212.68C383.013 212.396 381.63 212.983 380.897 214.15L377.572 219.445C375.911 222.088 371.848 221.149 371.515 218.045L371.4 216.984L345.81 256.389L360.94 297.956C361.573 299.696 361.94 301.469 362.073 303.229C363.026 304.196 363.371 305.728 362.645 307.094L361.671 308.924C360.896 312.452 359.165 315.724 356.656 318.353L355.261 320.978C354.406 322.588 352.527 323.097 351.04 322.455C350.427 322.753 349.794 323.023 349.139 323.261L246.134 360.752L255.662 377.943C256.89 380.159 255.261 382.872 252.728 382.828L226.283 382.367C223.751 382.322 222.216 379.554 223.521 377.383L229.979 366.631L200.285 377.44C190.038 381.17 178.707 375.887 174.977 365.64L159.902 324.221L153.435 322.243C154.523 323.211 155.495 324.347 156.306 325.644C160.889 332.979 158.658 342.641 151.323 347.224C143.989 351.807 134.327 349.577 129.744 342.243C125.16 334.908 127.392 325.247 134.726 320.663C136.679 319.443 138.796 318.71 140.938 318.423L108.974 308.652C101.821 306.465 96.2245 301.598 92.9489 295.489C92.7458 295.364 92.5611 295.189 92.4154 294.957L86.6389 285.757C86.2725 285.173 85.581 284.881 84.9067 285.022L74.2744 287.257C72.7468 287.578 71.6732 285.79 72.674 284.592L79.638 276.254C80.0797 275.725 80.145 274.976 79.8019 274.379L74.3917 264.959C73.6141 263.606 74.982 262.03 76.4307 262.612L86.5136 266.659C87.1525 266.916 87.8833 266.747 88.3453 266.237L95.6339 258.179C96.6811 257.021 98.6008 257.836 98.4957 259.393L98.2627 262.826C105.143 256.353 115.206 253.649 124.886 256.609L136.597 260.189L120.8 216.785C120.333 215.501 120.006 214.2 119.813 212.898C118.639 212.274 117.643 211.296 117.021 210.029C112.406 204.975 110.862 197.719 113.121 191.18L109.385 171.96L94.4561 169.863C93.2018 169.686 92.6077 168.218 93.3876 167.219L106.584 150.33C107.364 149.332 108.932 149.553 109.406 150.727L114.31 162.865C115.392 162.651 116.556 162.706 117.721 163.108L154.1 175.634C157.015 176.638 158.599 179.333 158.535 182.038L190.817 170.289L174.939 157.087C170.057 153.027 171.419 145.202 177.386 143.03L177.653 142.932C181.038 141.701 184.831 142.815 187.012 145.682L191.841 152.025C192.549 152.951 193.976 152.022 193.416 151L188.099 141.309C187.575 140.355 188.025 139.158 189.048 138.785L202.84 133.765C204.075 133.316 205.421 134.073 205.677 135.363L207.585 144.957C207.878 146.432 210.053 146.206 210.037 144.701L209.466 137.802C209.161 134.106 211.366 130.662 214.851 129.393L215.553 129.138C221.519 126.966 227.592 132.086 226.462 138.334L222.784 158.654L254.526 147.1C251.742 145.339 250.482 141.572 252.277 138.334L260.433 123.617C259.116 123.257 258.032 122.072 258.114 120.434C258.18 119.123 257.422 117.911 256.215 117.395C253.481 116.227 253.758 112.263 256.628 111.487C257.49 111.254 258.19 110.672 258.587 109.912C258.225 109.731 257.924 109.417 257.774 108.982L245.549 73.4773C245.137 72.2799 246.175 71.0846 247.418 71.3258Z"/>
<path d="M337.566 335.822C341.844 332.422 348.041 333.158 351.405 337.464L351.373 337.488L354.383 341.406C356.046 343.573 355.65 346.693 353.497 348.375C351.411 350.004 348.442 349.686 346.745 347.695L346.585 347.497C348.249 349.664 347.852 352.784 345.699 354.466C343.552 356.144 340.469 355.758 338.801 353.606C340.45 355.772 340.05 358.88 337.903 360.557C335.75 362.24 332.655 361.847 330.99 359.68L327.976 355.756C327.748 355.46 327.562 355.144 327.41 354.818C324.949 350.604 325.897 345.095 329.819 341.978L337.566 335.822Z"/>
<path d="M61.6496 211.807C62.2829 210.711 63.865 210.711 64.4985 211.807L74.0494 228.348C74.6825 229.445 73.8906 230.816 72.6242 230.816H53.5238C52.2576 230.816 51.467 229.445 52.1002 228.348L61.6496 211.807Z"/>
<path d="M341.42 145.248C346.85 142.113 353.794 143.974 356.929 149.405C360.064 154.835 358.204 161.777 352.774 164.912C347.344 168.047 340.4 166.187 337.265 160.757C334.13 155.327 335.99 148.383 341.42 145.248Z"/>
<path d="M201.17 82.3325C211.439 81.7944 220.201 89.6823 220.74 99.9514C221.278 110.221 213.389 118.983 203.119 119.521C192.85 120.059 184.09 112.17 183.551 101.9C183.013 91.6314 190.901 82.8709 201.17 82.3325Z"/>
</mask>
<path d="M220.852 381.927C225.858 381.968 229.993 385.72 230.652 390.551C230.736 390.905 230.786 391.273 230.789 391.651L230.829 396.599C230.851 399.331 228.654 401.546 225.922 401.546C223.19 401.546 220.957 399.33 220.934 396.599C220.956 399.331 218.759 401.546 216.027 401.546C213.295 401.546 211.062 399.33 211.039 396.599C211.061 399.331 208.864 401.546 206.132 401.546C205.577 401.546 205.044 401.449 204.545 401.281L207.784 403.395C209.091 404.249 208.587 406.272 207.032 406.411L201.721 406.889C201.035 406.95 200.46 407.432 200.28 408.097L198.888 413.245C198.481 414.752 196.399 414.898 195.786 413.462L193.692 408.558C193.421 407.925 192.784 407.526 192.096 407.56L186.77 407.829C185.211 407.906 184.43 405.973 185.605 404.946L189.622 401.438C190.141 400.985 190.323 400.257 190.078 399.613L188.177 394.63C187.621 393.172 189.219 391.831 190.559 392.631L195.137 395.368C195.728 395.721 196.477 395.668 197.013 395.236L201.104 391.939L201.103 391.659H201.063C201.063 386.195 205.493 381.802 210.957 381.846L220.852 381.927Z" fill="#FFDF80"/>
<path d="M307.814 378.159C309.046 377.201 310.794 378.337 310.42 379.852L308.635 387.083C308.469 387.752 308.739 388.454 309.31 388.841L315.475 393.02C316.767 393.896 316.227 395.911 314.67 396.023L307.24 396.558C306.553 396.608 305.969 397.081 305.778 397.743L303.71 404.899C303.276 406.399 301.192 406.508 300.604 405.062L297.798 398.16C297.539 397.522 296.909 397.114 296.22 397.137L288.776 397.379C287.216 397.43 286.468 395.484 287.661 394.478L293.357 389.676C293.884 389.232 294.078 388.507 293.844 387.859L291.311 380.853C290.781 379.385 292.402 378.072 293.728 378.896L300.054 382.83C300.639 383.193 301.389 383.154 301.933 382.732L307.814 378.159Z" fill="#FFDF80"/>
<path d="M138.475 358.608C139.542 357.47 141.447 358.318 141.314 359.873L140.868 365.127C140.809 365.814 141.184 366.464 141.808 366.757L146.582 368.997C147.995 369.659 147.777 371.733 146.257 372.088L141.122 373.287C140.451 373.443 139.947 374.001 139.862 374.685L139.383 378.504L158.781 377.489C160.045 377.422 160.908 378.751 160.333 379.88L148.28 403.537C147.705 404.665 146.124 404.747 145.434 403.685L130.973 381.419C130.283 380.357 131.002 378.945 132.266 378.879L135.061 378.731L133.441 376.049C133.085 375.459 132.398 375.154 131.722 375.284L126.543 376.279C125.01 376.573 123.968 374.768 124.989 373.587L128.439 369.599C128.89 369.078 128.969 368.331 128.636 367.727L126.09 363.109C125.336 361.742 126.732 360.192 128.171 360.799L133.03 362.849C133.664 363.116 134.398 362.961 134.869 362.458L138.475 358.608Z" fill="#FFDF80"/>
<path d="M247.418 71.3258L284.278 78.4906C285.522 78.7323 286.036 80.2293 285.206 81.1853L263.454 106.207C263.921 106.44 264.346 106.802 264.677 107.309C265.394 108.408 266.72 108.944 268 108.652C268.266 108.592 268.526 108.564 268.776 108.567L270.929 104.683C273.385 100.252 279.718 100.143 282.328 104.486L302.143 137.463C303.142 139.125 303.304 140.963 302.845 142.603C304.511 144.442 305.86 146.625 306.761 149.101L320.336 186.4C319.822 179.772 323.597 173.292 330.089 170.669C334.523 168.878 339.294 169.263 343.223 171.319C350.812 168.786 359.442 169.608 366.673 174.304C372.769 178.263 376.753 184.25 378.318 190.803L378.912 191.46C379.837 192.482 381.299 192.818 382.578 192.305L388.378 189.977C391.276 188.814 394.013 191.963 392.458 194.67L389.345 200.09C388.659 201.285 388.79 202.781 389.673 203.839L393.681 208.637C395.681 211.033 393.533 214.608 390.478 213.967L384.361 212.68C383.013 212.396 381.63 212.983 380.897 214.15L377.572 219.445C375.911 222.088 371.848 221.149 371.515 218.045L371.4 216.984L345.81 256.389L360.94 297.956C361.573 299.696 361.94 301.469 362.073 303.229C363.026 304.196 363.371 305.728 362.645 307.094L361.671 308.924C360.896 312.452 359.165 315.724 356.656 318.353L355.261 320.978C354.406 322.588 352.527 323.097 351.04 322.455C350.427 322.753 349.794 323.023 349.139 323.261L246.134 360.752L255.662 377.943C256.89 380.159 255.261 382.872 252.728 382.828L226.283 382.367C223.751 382.322 222.216 379.554 223.521 377.383L229.979 366.631L200.285 377.44C190.038 381.17 178.707 375.887 174.977 365.64L159.902 324.221L153.435 322.243C154.523 323.211 155.495 324.347 156.306 325.644C160.889 332.979 158.658 342.641 151.323 347.224C143.989 351.807 134.327 349.577 129.744 342.243C125.16 334.908 127.392 325.247 134.726 320.663C136.679 319.443 138.796 318.71 140.938 318.423L108.974 308.652C101.821 306.465 96.2245 301.598 92.9489 295.489C92.7458 295.364 92.5611 295.189 92.4154 294.957L86.6389 285.757C86.2725 285.173 85.581 284.881 84.9067 285.022L74.2744 287.257C72.7468 287.578 71.6732 285.79 72.674 284.592L79.638 276.254C80.0797 275.725 80.145 274.976 79.8019 274.379L74.3917 264.959C73.6141 263.606 74.982 262.03 76.4307 262.612L86.5136 266.659C87.1525 266.916 87.8833 266.747 88.3453 266.237L95.6339 258.179C96.6811 257.021 98.6008 257.836 98.4957 259.393L98.2627 262.826C105.143 256.353 115.206 253.649 124.886 256.609L136.597 260.189L120.8 216.785C120.333 215.501 120.006 214.2 119.813 212.898C118.639 212.274 117.643 211.296 117.021 210.029C112.406 204.975 110.862 197.719 113.121 191.18L109.385 171.96L94.4561 169.863C93.2018 169.686 92.6077 168.218 93.3876 167.219L106.584 150.33C107.364 149.332 108.932 149.553 109.406 150.727L114.31 162.865C115.392 162.651 116.556 162.706 117.721 163.108L154.1 175.634C157.015 176.638 158.599 179.333 158.535 182.038L190.817 170.289L174.939 157.087C170.057 153.027 171.419 145.202 177.386 143.03L177.653 142.932C181.038 141.701 184.831 142.815 187.012 145.682L191.841 152.025C192.549 152.951 193.976 152.022 193.416 151L188.099 141.309C187.575 140.355 188.025 139.158 189.048 138.785L202.84 133.765C204.075 133.316 205.421 134.073 205.677 135.363L207.585 144.957C207.878 146.432 210.053 146.206 210.037 144.701L209.466 137.802C209.161 134.106 211.366 130.662 214.851 129.393L215.553 129.138C221.519 126.966 227.592 132.086 226.462 138.334L222.784 158.654L254.526 147.1C251.742 145.339 250.482 141.572 252.277 138.334L260.433 123.617C259.116 123.257 258.032 122.072 258.114 120.434C258.18 119.123 257.422 117.911 256.215 117.395C253.481 116.227 253.758 112.263 256.628 111.487C257.49 111.254 258.19 110.672 258.587 109.912C258.225 109.731 257.924 109.417 257.774 108.982L245.549 73.4773C245.137 72.2799 246.175 71.0846 247.418 71.3258Z" fill="#FFDF80"/>
<path d="M337.566 335.822C341.844 332.422 348.041 333.158 351.405 337.464L351.373 337.488L354.383 341.406C356.046 343.573 355.65 346.693 353.497 348.375C351.411 350.004 348.442 349.686 346.745 347.695L346.585 347.497C348.249 349.664 347.852 352.784 345.699 354.466C343.552 356.144 340.469 355.758 338.801 353.606C340.45 355.772 340.05 358.88 337.903 360.557C335.75 362.24 332.655 361.847 330.99 359.68L327.976 355.756C327.748 355.46 327.562 355.144 327.41 354.818C324.949 350.604 325.897 345.095 329.819 341.978L337.566 335.822Z" fill="#FFDF80"/>
<path d="M61.6496 211.807C62.2829 210.711 63.865 210.711 64.4985 211.807L74.0494 228.348C74.6825 229.445 73.8906 230.816 72.6242 230.816H53.5238C52.2576 230.816 51.467 229.445 52.1002 228.348L61.6496 211.807Z" fill="#FFDF80"/>
<path d="M341.42 145.248C346.85 142.113 353.794 143.974 356.929 149.405C360.064 154.835 358.204 161.777 352.774 164.912C347.344 168.047 340.4 166.187 337.265 160.757C334.13 155.327 335.99 148.383 341.42 145.248Z" fill="#FFDF80"/>
<path d="M201.17 82.3325C211.439 81.7944 220.201 89.6823 220.74 99.9514C221.278 110.221 213.389 118.983 203.119 119.521C192.85 120.059 184.09 112.17 183.551 101.9C183.013 91.6314 190.901 82.8709 201.17 82.3325Z" fill="#FFDF80"/>
<path d="M220.852 381.927C225.858 381.968 229.993 385.72 230.652 390.551C230.736 390.905 230.786 391.273 230.789 391.651L230.829 396.599C230.851 399.331 228.654 401.546 225.922 401.546C223.19 401.546 220.957 399.33 220.934 396.599C220.956 399.331 218.759 401.546 216.027 401.546C213.295 401.546 211.062 399.33 211.039 396.599C211.061 399.331 208.864 401.546 206.132 401.546C205.577 401.546 205.044 401.449 204.545 401.281L207.784 403.395C209.091 404.249 208.587 406.272 207.032 406.411L201.721 406.889C201.035 406.95 200.46 407.432 200.28 408.097L198.888 413.245C198.481 414.752 196.399 414.898 195.786 413.462L193.692 408.558C193.421 407.925 192.784 407.526 192.096 407.56L186.77 407.829C185.211 407.906 184.43 405.973 185.605 404.946L189.622 401.438C190.141 400.985 190.323 400.257 190.078 399.613L188.177 394.63C187.621 393.172 189.219 391.831 190.559 392.631L195.137 395.368C195.728 395.721 196.477 395.668 197.013 395.236L201.104 391.939L201.103 391.659H201.063C201.063 386.195 205.493 381.802 210.957 381.846L220.852 381.927Z" stroke="#FFDF80" stroke-width="16" mask="url(#path-1-outside-1_222_968)"/>
<path d="M307.814 378.159C309.046 377.201 310.794 378.337 310.42 379.852L308.635 387.083C308.469 387.752 308.739 388.454 309.31 388.841L315.475 393.02C316.767 393.896 316.227 395.911 314.67 396.023L307.24 396.558C306.553 396.608 305.969 397.081 305.778 397.743L303.71 404.899C303.276 406.399 301.192 406.508 300.604 405.062L297.798 398.16C297.539 397.522 296.909 397.114 296.22 397.137L288.776 397.379C287.216 397.43 286.468 395.484 287.661 394.478L293.357 389.676C293.884 389.232 294.078 388.507 293.844 387.859L291.311 380.853C290.781 379.385 292.402 378.072 293.728 378.896L300.054 382.83C300.639 383.193 301.389 383.154 301.933 382.732L307.814 378.159Z" stroke="#FFDF80" stroke-width="16" mask="url(#path-1-outside-1_222_968)"/>
<path d="M138.475 358.608C139.542 357.47 141.447 358.318 141.314 359.873L140.868 365.127C140.809 365.814 141.184 366.464 141.808 366.757L146.582 368.997C147.995 369.659 147.777 371.733 146.257 372.088L141.122 373.287C140.451 373.443 139.947 374.001 139.862 374.685L139.383 378.504L158.781 377.489C160.045 377.422 160.908 378.751 160.333 379.88L148.28 403.537C147.705 404.665 146.124 404.747 145.434 403.685L130.973 381.419C130.283 380.357 131.002 378.945 132.266 378.879L135.061 378.731L133.441 376.049C133.085 375.459 132.398 375.154 131.722 375.284L126.543 376.279C125.01 376.573 123.968 374.768 124.989 373.587L128.439 369.599C128.89 369.078 128.969 368.331 128.636 367.727L126.09 363.109C125.336 361.742 126.732 360.192 128.171 360.799L133.03 362.849C133.664 363.116 134.398 362.961 134.869 362.458L138.475 358.608Z" stroke="#FFDF80" stroke-width="16" mask="url(#path-1-outside-1_222_968)"/>
<path d="M247.418 71.3258L284.278 78.4906C285.522 78.7323 286.036 80.2293 285.206 81.1853L263.454 106.207C263.921 106.44 264.346 106.802 264.677 107.309C265.394 108.408 266.72 108.944 268 108.652C268.266 108.592 268.526 108.564 268.776 108.567L270.929 104.683C273.385 100.252 279.718 100.143 282.328 104.486L302.143 137.463C303.142 139.125 303.304 140.963 302.845 142.603C304.511 144.442 305.86 146.625 306.761 149.101L320.336 186.4C319.822 179.772 323.597 173.292 330.089 170.669C334.523 168.878 339.294 169.263 343.223 171.319C350.812 168.786 359.442 169.608 366.673 174.304C372.769 178.263 376.753 184.25 378.318 190.803L378.912 191.46C379.837 192.482 381.299 192.818 382.578 192.305L388.378 189.977C391.276 188.814 394.013 191.963 392.458 194.67L389.345 200.09C388.659 201.285 388.79 202.781 389.673 203.839L393.681 208.637C395.681 211.033 393.533 214.608 390.478 213.967L384.361 212.68C383.013 212.396 381.63 212.983 380.897 214.15L377.572 219.445C375.911 222.088 371.848 221.149 371.515 218.045L371.4 216.984L345.81 256.389L360.94 297.956C361.573 299.696 361.94 301.469 362.073 303.229C363.026 304.196 363.371 305.728 362.645 307.094L361.671 308.924C360.896 312.452 359.165 315.724 356.656 318.353L355.261 320.978C354.406 322.588 352.527 323.097 351.04 322.455C350.427 322.753 349.794 323.023 349.139 323.261L246.134 360.752L255.662 377.943C256.89 380.159 255.261 382.872 252.728 382.828L226.283 382.367C223.751 382.322 222.216 379.554 223.521 377.383L229.979 366.631L200.285 377.44C190.038 381.17 178.707 375.887 174.977 365.64L159.902 324.221L153.435 322.243C154.523 323.211 155.495 324.347 156.306 325.644C160.889 332.979 158.658 342.641 151.323 347.224C143.989 351.807 134.327 349.577 129.744 342.243C125.16 334.908 127.392 325.247 134.726 320.663C136.679 319.443 138.796 318.71 140.938 318.423L108.974 308.652C101.821 306.465 96.2245 301.598 92.9489 295.489C92.7458 295.364 92.5611 295.189 92.4154 294.957L86.6389 285.757C86.2725 285.173 85.581 284.881 84.9067 285.022L74.2744 287.257C72.7468 287.578 71.6732 285.79 72.674 284.592L79.638 276.254C80.0797 275.725 80.145 274.976 79.8019 274.379L74.3917 264.959C73.6141 263.606 74.982 262.03 76.4307 262.612L86.5136 266.659C87.1525 266.916 87.8833 266.747 88.3453 266.237L95.6339 258.179C96.6811 257.021 98.6008 257.836 98.4957 259.393L98.2627 262.826C105.143 256.353 115.206 253.649 124.886 256.609L136.597 260.189L120.8 216.785C120.333 215.501 120.006 214.2 119.813 212.898C118.639 212.274 117.643 211.296 117.021 210.029C112.406 204.975 110.862 197.719 113.121 191.18L109.385 171.96L94.4561 169.863C93.2018 169.686 92.6077 168.218 93.3876 167.219L106.584 150.33C107.364 149.332 108.932 149.553 109.406 150.727L114.31 162.865C115.392 162.651 116.556 162.706 117.721 163.108L154.1 175.634C157.015 176.638 158.599 179.333 158.535 182.038L190.817 170.289L174.939 157.087C170.057 153.027 171.419 145.202 177.386 143.03L177.653 142.932C181.038 141.701 184.831 142.815 187.012 145.682L191.841 152.025C192.549 152.951 193.976 152.022 193.416 151L188.099 141.309C187.575 140.355 188.025 139.158 189.048 138.785L202.84 133.765C204.075 133.316 205.421 134.073 205.677 135.363L207.585 144.957C207.878 146.432 210.053 146.206 210.037 144.701L209.466 137.802C209.161 134.106 211.366 130.662 214.851 129.393L215.553 129.138C221.519 126.966 227.592 132.086 226.462 138.334L222.784 158.654L254.526 147.1C251.742 145.339 250.482 141.572 252.277 138.334L260.433 123.617C259.116 123.257 258.032 122.072 258.114 120.434C258.18 119.123 257.422 117.911 256.215 117.395C253.481 116.227 253.758 112.263 256.628 111.487C257.49 111.254 258.19 110.672 258.587 109.912C258.225 109.731 257.924 109.417 257.774 108.982L245.549 73.4773C245.137 72.2799 246.175 71.0846 247.418 71.3258Z" stroke="#FFDF80" stroke-width="16" mask="url(#path-1-outside-1_222_968)"/>
<path d="M337.566 335.822C341.844 332.422 348.041 333.158 351.405 337.464L351.373 337.488L354.383 341.406C356.046 343.573 355.65 346.693 353.497 348.375C351.411 350.004 348.442 349.686 346.745 347.695L346.585 347.497C348.249 349.664 347.852 352.784 345.699 354.466C343.552 356.144 340.469 355.758 338.801 353.606C340.45 355.772 340.05 358.88 337.903 360.557C335.75 362.24 332.655 361.847 330.99 359.68L327.976 355.756C327.748 355.46 327.562 355.144 327.41 354.818C324.949 350.604 325.897 345.095 329.819 341.978L337.566 335.822Z" stroke="#FFDF80" stroke-width="16" mask="url(#path-1-outside-1_222_968)"/>
<path d="M61.6496 211.807C62.2829 210.711 63.865 210.711 64.4985 211.807L74.0494 228.348C74.6825 229.445 73.8906 230.816 72.6242 230.816H53.5238C52.2576 230.816 51.467 229.445 52.1002 228.348L61.6496 211.807Z" stroke="#FFDF80" stroke-width="16" mask="url(#path-1-outside-1_222_968)"/>
<path d="M341.42 145.248C346.85 142.113 353.794 143.974 356.929 149.405C360.064 154.835 358.204 161.777 352.774 164.912C347.344 168.047 340.4 166.187 337.265 160.757C334.13 155.327 335.99 148.383 341.42 145.248Z" stroke="#FFDF80" stroke-width="16" mask="url(#path-1-outside-1_222_968)"/>
<path d="M201.17 82.3325C211.439 81.7944 220.201 89.6823 220.74 99.9514C221.278 110.221 213.389 118.983 203.119 119.521C192.85 120.059 184.09 112.17 183.551 101.9C183.013 91.6314 190.901 82.8709 201.17 82.3325Z" stroke="#FFDF80" stroke-width="16" mask="url(#path-1-outside-1_222_968)"/>
<g opacity="0.7">
<circle cx="130.949" cy="197.321" r="18.8529" transform="rotate(121 130.949 197.321)" fill="url(#paint0_linear_222_968)"/>
<path d="M396.067 211.492C397.283 212.949 395.977 215.122 394.12 214.732L383.481 212.495C382.662 212.323 381.821 212.68 381.376 213.389L375.594 222.596C374.585 224.203 372.115 223.632 371.912 221.746L370.752 210.936C370.662 210.103 370.063 209.414 369.251 209.21L358.708 206.556C356.868 206.093 356.647 203.567 358.379 202.792L368.301 198.347C369.065 198.005 369.535 197.223 369.479 196.387L368.745 185.54C368.616 183.647 370.95 182.656 372.223 184.064L379.516 192.127C380.078 192.748 380.967 192.953 381.744 192.641L391.833 188.591C393.594 187.884 395.258 189.798 394.313 191.443L388.898 200.87C388.481 201.597 388.56 202.506 389.097 203.149L396.067 211.492Z" fill="url(#paint1_linear_222_968)"/>
<path d="M256.748 379.899C257.494 381.245 256.503 382.895 254.964 382.868L224.049 382.328C222.51 382.301 221.577 380.618 222.37 379.298L238.294 352.795C239.087 351.476 241.012 351.509 241.758 352.856L256.748 379.899Z" fill="url(#paint2_linear_222_968)"/>
<circle cx="347.098" cy="155.081" r="11.3532" transform="rotate(-120 347.098 155.081)" fill="url(#paint3_linear_222_968)"/>
<path d="M124.716 376.63C123.784 376.809 123.15 375.711 123.771 374.994L128.734 369.259C129.008 368.942 129.056 368.488 128.854 368.121L125.192 361.48C124.733 360.649 125.582 359.707 126.456 360.076L133.444 363.024C133.83 363.186 134.276 363.091 134.562 362.786L139.747 357.251C140.396 356.558 141.554 357.074 141.473 358.019L140.829 365.576C140.793 365.993 141.022 366.388 141.401 366.566L148.267 369.787C149.126 370.19 148.994 371.45 148.07 371.666L140.684 373.389C140.276 373.484 139.971 373.823 139.919 374.238L138.977 381.764C138.86 382.705 137.62 382.969 137.129 382.157L133.209 375.665C132.992 375.306 132.575 375.121 132.164 375.199L124.716 376.63Z" fill="url(#paint4_linear_222_968)"/>
<path d="M52.4069 230.816C51.6371 230.816 51.1559 229.983 51.5408 229.316L62.2084 210.839C62.5933 210.173 63.5556 210.173 63.9405 210.839L74.608 229.316C74.9929 229.983 74.5118 230.816 73.742 230.816L52.4069 230.816Z" fill="url(#paint5_linear_222_968)"/>
<circle cx="341.781" cy="302.194" r="11.1595" transform="rotate(-49 341.781 302.194)" fill="url(#paint6_linear_222_968)"/>
<path d="M73.4645 263.345C72.9919 262.522 73.8236 261.566 74.7042 261.919L86.9305 266.827C87.3192 266.983 87.7638 266.88 88.0447 266.57L96.8822 256.799C97.5186 256.095 98.6856 256.59 98.6215 257.537L97.7319 270.682C97.7036 271.1 97.9387 271.491 98.3208 271.662L110.345 277.047C111.21 277.435 111.1 278.698 110.18 278.93L97.4036 282.146C96.9975 282.248 96.6981 282.592 96.6534 283.009L95.247 296.108C95.1457 297.051 93.9105 297.337 93.4059 296.533L86.3994 285.376C86.1767 285.021 85.7566 284.843 85.3468 284.929L72.4539 287.64C71.5254 287.835 70.8724 286.748 71.4807 286.02L79.9267 275.909C80.1951 275.587 80.2349 275.133 80.0263 274.769L73.4645 263.345Z" fill="url(#paint7_linear_222_968)"/>
<path d="M245.185 72.4202C244.935 71.6923 245.566 70.9661 246.321 71.113L285.376 78.7045C286.132 78.8514 286.445 79.7612 285.94 80.3422L259.838 110.369C259.333 110.95 258.389 110.766 258.138 110.038L245.185 72.4202Z" fill="url(#paint8_linear_222_968)"/>
</g>
<path d="M170.62 153.495C167.653 151.027 168.481 146.271 172.107 144.951L179.885 142.12C181.943 141.372 184.248 142.048 185.574 143.791L191.842 152.026C192.55 152.952 193.978 152.022 193.417 151L188.099 141.309C187.575 140.354 188.025 139.158 189.048 138.785L202.84 133.766C204.076 133.316 205.422 134.073 205.678 135.363L207.585 144.957C207.879 146.432 210.054 146.206 210.037 144.702L209.263 135.347C209.078 133.1 210.418 131.007 212.536 130.236L220.833 127.217C224.46 125.897 228.151 129.008 227.464 132.805L218.302 183.438C217.62 187.206 213.129 188.841 210.185 186.392L170.62 153.495Z" fill="url(#paint9_linear_222_968)"/>
<path d="M108.975 308.652C94.6032 304.258 86.5148 289.046 90.9085 274.675C95.3023 260.303 110.515 252.215 124.886 256.609L176.285 272.323C180.56 273.63 182.967 278.156 181.66 282.432L170.482 318.991C169.175 323.267 164.649 325.673 160.373 324.366L108.975 308.652Z" fill="url(#paint10_linear_222_968)"/>
<path d="M374.674 211.946C382.859 199.342 379.277 182.49 366.673 174.305C354.07 166.12 337.217 169.702 329.032 182.305L299.759 227.381C297.324 231.131 298.39 236.145 302.14 238.58L334.202 259.402C337.952 261.837 342.966 260.771 345.401 257.021L374.674 211.946Z" fill="url(#paint11_linear_222_968)"/>
<rect width="197.896" height="197.897" rx="12" transform="matrix(-0.939693 0.34202 0.34202 0.939693 300.008 130.547)" fill="url(#paint12_linear_222_968)"/>
<path d="M113.495 161.652C110.583 160.65 107.679 163.175 108.266 166.198L117.314 212.743C117.901 215.766 121.54 217.019 123.864 214.999L159.65 183.891C161.974 181.87 161.239 178.092 158.328 177.09L113.495 161.652Z" fill="url(#paint13_linear_222_968)"/>
<path d="M280.024 100.652C278.439 98.0131 274.59 98.0802 273.097 100.773L250.109 142.245C248.617 144.938 250.599 148.237 253.678 148.183L301.087 147.356C304.166 147.302 306.032 143.936 304.446 141.296L280.024 100.652Z" fill="url(#paint14_linear_222_968)"/>
<rect width="9.89481" height="14.8423" rx="4.94741" transform="matrix(-0.788011 0.615662 -0.609147 -0.793057 349.599 351.421)" fill="#1D1551"/>
<rect width="9.89481" height="14.8423" rx="4.94741" transform="matrix(-0.788011 0.615662 -0.609147 -0.793057 341.802 357.512)" fill="#1D1551"/>
<rect width="9.89481" height="14.8423" rx="4.94741" transform="matrix(-0.788011 0.615662 -0.609147 -0.793057 357.396 345.329)" fill="#1D1551"/>
<path d="M329.82 341.978C325.542 345.378 324.801 351.625 328.165 355.931L351.405 337.464C348.041 333.157 341.845 332.423 337.567 335.822L329.82 341.978Z" fill="#1D1551"/>
<rect width="9.89481" height="14.8423" rx="4.9474" transform="matrix(1 -5.14792e-09 -0.0082399 -0.999966 211.081 401.545)" fill="#1D1551"/>
<rect width="9.89481" height="14.8423" rx="4.94741" transform="matrix(1 -5.14792e-09 -0.0082399 -0.999966 220.976 401.545)" fill="#1D1551"/>
<rect width="9.89481" height="14.8423" rx="4.94741" transform="matrix(1 -5.14792e-09 -0.0082399 -0.999966 201.186 401.545)" fill="#1D1551"/>
<path d="M220.853 381.927C226.318 381.972 230.748 386.439 230.748 391.904L201.064 391.659C201.064 386.194 205.494 381.801 210.959 381.846L220.853 381.927Z" fill="#1D1551"/>
<path d="M251.851 165.413C231.499 172.82 221.205 195.874 228.86 216.905C236.514 237.935 259.218 248.979 279.571 241.572C299.923 234.164 310.216 211.11 302.561 190.08C294.907 169.049 272.203 158.005 251.851 165.413Z" fill="#FBFBFE"/>
<path d="M251.851 165.413C231.499 172.82 221.205 195.874 228.86 216.905C236.514 237.935 259.218 248.979 279.571 241.572C299.923 234.164 310.216 211.11 302.561 190.08C294.907 169.049 272.203 158.005 251.851 165.413Z" stroke="#A6A6A6"/>
<path d="M173.297 193.045C152.945 200.453 142.652 223.507 150.306 244.538C157.961 265.568 180.665 276.612 201.017 269.205C221.369 261.797 231.662 238.743 224.008 217.712C216.353 196.682 193.649 185.638 173.297 193.045Z" fill="#FBFBFE"/>
<path d="M173.297 193.045C152.945 200.453 142.652 223.507 150.306 244.538C157.961 265.568 180.665 276.612 201.017 269.205C221.369 261.797 231.662 238.743 224.008 217.712C216.353 196.682 193.649 185.638 173.297 193.045Z" stroke="#A6A6A6"/>
<rect width="18.3008" height="26.1441" rx="9.15041" transform="matrix(0.939693 -0.34202 -0.34202 -0.939693 242.587 228.273)" fill="#1D1551"/>
<rect width="18.3008" height="26.1441" rx="9.15041" transform="matrix(0.939693 -0.34202 -0.34202 -0.939693 205.4 243.009)" fill="#1D1551"/>
<path d="M242.982 264.839C243.689 264.939 244.396 264.653 244.836 264.09L254.016 252.34C255.276 250.728 253.588 248.488 251.691 249.255L227.745 258.929C225.848 259.696 226.19 262.479 228.216 262.764L242.982 264.839Z" fill="url(#paint15_linear_222_968)"/>
<path d="M234.213 234.502C233.338 234.216 232.381 234.564 231.895 235.346L219.819 254.732C218.814 256.345 220.414 258.319 222.2 257.669L255.988 245.371C257.774 244.721 257.732 242.18 255.925 241.59L234.213 234.502Z" fill="#E00070"/>
<circle cx="143.026" cy="333.944" r="15.6605" transform="rotate(58 143.026 333.944)" fill="url(#paint16_linear_222_968)"/>
<path d="M271.187 107.924C273.037 107.501 274.381 109.651 273.19 111.129L270.642 114.289C270.117 114.941 270.053 115.852 270.483 116.57L272.566 120.055C273.54 121.683 271.91 123.626 270.137 122.95L266.344 121.503C265.561 121.205 264.676 121.426 264.125 122.057L261.455 125.114C260.206 126.544 257.856 125.594 257.951 123.699L258.154 119.644C258.196 118.808 257.712 118.034 256.942 117.705L253.209 116.11C251.464 115.365 251.641 112.836 253.473 112.341L257.391 111.281C258.2 111.063 258.786 110.363 258.861 109.529L259.224 105.486C259.394 103.596 261.854 102.983 262.891 104.572L265.11 107.971C265.567 108.673 266.414 109.015 267.23 108.828L271.187 107.924Z" fill="url(#paint17_linear_222_968)"/>
<path d="M361.858 302.182C363.397 302.128 364.417 303.76 363.694 305.12L354.212 322.952C353.489 324.312 351.566 324.379 350.75 323.073L340.048 305.945C339.232 304.64 340.135 302.941 341.674 302.887L361.858 302.182Z" fill="url(#paint18_linear_222_968)"/>
<circle cx="202.145" cy="100.927" r="18.6198" transform="rotate(177 202.145 100.927)" fill="url(#paint19_linear_222_968)"/>
<path d="M303.193 406.687C302.929 407.598 301.663 407.664 301.306 406.785L297.629 397.745C297.472 397.357 297.089 397.108 296.67 397.122L286.916 397.441C285.967 397.472 285.513 396.288 286.239 395.677L293.701 389.386C294.021 389.117 294.139 388.676 293.997 388.282L290.679 379.103C290.357 378.211 291.342 377.413 292.148 377.914L300.436 383.068C300.792 383.289 301.247 383.265 301.578 383.008L309.282 377.016C310.031 376.434 311.094 377.124 310.867 378.045L308.527 387.52C308.427 387.927 308.59 388.353 308.937 388.588L317.016 394.064C317.801 394.596 317.473 395.82 316.527 395.889L306.792 396.591C306.375 396.621 306.02 396.909 305.904 397.311L303.193 406.687Z" fill="url(#paint20_linear_222_968)"/>
<path d="M147.772 404.532C147.423 405.218 146.462 405.269 146.042 404.623L130.364 380.481C129.945 379.835 130.382 378.978 131.151 378.938L159.898 377.431C160.666 377.391 161.19 378.198 160.841 378.884L147.772 404.532Z" fill="url(#paint21_linear_222_968)"/>
<circle cx="335.958" cy="185.194" r="15.6654" transform="rotate(-112 335.958 185.194)" fill="url(#paint22_linear_222_968)"/>
<path d="M184.912 407.922C183.964 407.969 183.489 406.794 184.204 406.17L189.961 401.142C190.276 400.867 190.387 400.424 190.238 400.033L187.514 392.891C187.176 392.005 188.148 391.19 188.962 391.677L195.522 395.599C195.882 395.814 196.337 395.782 196.663 395.519L202.613 390.722C203.352 390.127 204.427 390.799 204.216 391.724L202.513 399.175C202.42 399.583 202.591 400.006 202.942 400.235L209.342 404.412C210.137 404.93 209.83 406.16 208.885 406.245L201.273 406.928C200.856 406.966 200.506 407.259 200.397 407.663L198.402 415.042C198.154 415.958 196.89 416.046 196.517 415.173L193.515 408.145C193.35 407.76 192.963 407.518 192.545 407.539L184.912 407.922Z" fill="url(#paint23_linear_222_968)"/>
<path d="M93.349 169.707C92.5867 169.6 92.2262 168.708 92.7002 168.101L107.272 149.45C107.746 148.843 108.699 148.977 108.988 149.691L117.854 171.636C118.143 172.35 117.55 173.108 116.788 173.001L93.349 169.707Z" fill="url(#paint24_linear_222_968)"/>
<defs>
<linearGradient id="paint0_linear_222_968" x1="130.949" y1="178.468" x2="130.949" y2="216.174" gradientUnits="userSpaceOnUse">
<stop stop-color="#FBFBFE"/>
<stop offset="1" stop-color="#969698"/>
</linearGradient>
<linearGradient id="paint1_linear_222_968" x1="399.764" y1="215.918" x2="356.615" y2="189.992" gradientUnits="userSpaceOnUse">
<stop stop-color="#FBFBFE"/>
<stop offset="1" stop-color="#969698"/>
</linearGradient>
<linearGradient id="paint2_linear_222_968" x1="258.427" y1="382.928" x2="220.967" y2="360.42" gradientUnits="userSpaceOnUse">
<stop stop-color="#FBFBFE"/>
<stop offset="1" stop-color="#969698"/>
</linearGradient>
<linearGradient id="paint3_linear_222_968" x1="347.098" y1="143.727" x2="347.098" y2="166.434" gradientUnits="userSpaceOnUse">
<stop stop-color="#422FB7"/>
<stop offset="1" stop-color="#1D1551"/>
</linearGradient>
<linearGradient id="paint4_linear_222_968" x1="121.885" y1="377.174" x2="148.875" y2="361.591" gradientUnits="userSpaceOnUse">
<stop stop-color="#422FB7"/>
<stop offset="1" stop-color="#1D1551"/>
</linearGradient>
<linearGradient id="paint5_linear_222_968" x1="50.6748" y1="230.816" x2="75.4741" y2="216.498" gradientUnits="userSpaceOnUse">
<stop stop-color="#422FB7"/>
<stop offset="1" stop-color="#1D1551"/>
</linearGradient>
<linearGradient id="paint6_linear_222_968" x1="341.781" y1="291.035" x2="341.781" y2="313.354" gradientUnits="userSpaceOnUse">
<stop stop-color="#FF4444"/>
<stop offset="1" stop-color="#FF8080"/>
</linearGradient>
<linearGradient id="paint7_linear_222_968" x1="72.0284" y1="260.845" x2="107.328" y2="291.531" gradientUnits="userSpaceOnUse">
<stop stop-color="#FF4444"/>
<stop offset="1" stop-color="#FF8080"/>
</linearGradient>
<linearGradient id="paint8_linear_222_968" x1="244.621" y1="70.7825" x2="282.312" y2="103.546" gradientUnits="userSpaceOnUse">
<stop stop-color="#FF4444"/>
<stop offset="1" stop-color="#FF8080"/>
</linearGradient>
<linearGradient id="paint9_linear_222_968" x1="216.776" y1="191.873" x2="196.47" y2="136.084" gradientUnits="userSpaceOnUse">
<stop stop-color="#1D1551"/>
<stop offset="1" stop-color="#422FB7"/>
</linearGradient>
<linearGradient id="paint10_linear_222_968" x1="90.9085" y1="274.675" x2="176.071" y2="300.712" gradientUnits="userSpaceOnUse">
<stop stop-color="#1D1551"/>
<stop offset="1" stop-color="#422FB7"/>
</linearGradient>
<linearGradient id="paint11_linear_222_968" x1="366.673" y1="174.305" x2="318.171" y2="248.991" gradientUnits="userSpaceOnUse">
<stop stop-color="#1D1551"/>
<stop offset="1" stop-color="#422FB7"/>
</linearGradient>
<linearGradient id="paint12_linear_222_968" x1="98.9481" y1="0" x2="98.9481" y2="197.897" gradientUnits="userSpaceOnUse">
<stop stop-color="#1D1551"/>
<stop offset="1" stop-color="#422FB7"/>
</linearGradient>
<linearGradient id="paint13_linear_222_968" x1="106.944" y1="159.397" x2="153.361" y2="212.794" gradientUnits="userSpaceOnUse">
<stop stop-color="#1D1551"/>
<stop offset="1" stop-color="#422FB7"/>
</linearGradient>
<linearGradient id="paint14_linear_222_968" x1="276.456" y1="94.7138" x2="277.691" y2="165.455" gradientUnits="userSpaceOnUse">
<stop stop-color="#1D1551"/>
<stop offset="1" stop-color="#422FB7"/>
</linearGradient>
<linearGradient id="paint15_linear_222_968" x1="244.125" y1="265" x2="238.249" y2="250.456" gradientUnits="userSpaceOnUse">
<stop stop-color="#E00070"/>
<stop offset="1" stop-color="#7A003D"/>
</linearGradient>
<linearGradient id="paint16_linear_222_968" x1="143.026" y1="318.283" x2="143.026" y2="349.604" gradientUnits="userSpaceOnUse">
<stop stop-color="#FBFBFE"/>
<stop offset="1" stop-color="#969698"/>
</linearGradient>
<linearGradient id="paint17_linear_222_968" x1="276.809" y1="106.639" x2="250.247" y2="123.237" gradientUnits="userSpaceOnUse">
<stop stop-color="#FBFBFE"/>
<stop offset="1" stop-color="#969698"/>
</linearGradient>
<linearGradient id="paint18_linear_222_968" x1="365.32" y1="302.061" x2="338.759" y2="318.659" gradientUnits="userSpaceOnUse">
<stop stop-color="#6A53FF"/>
<stop offset="1" stop-color="#7DA2FF"/>
</linearGradient>
<linearGradient id="paint19_linear_222_968" x1="202.145" y1="82.3068" x2="202.145" y2="119.546" gradientUnits="userSpaceOnUse">
<stop stop-color="#6A53FF"/>
<stop offset="1" stop-color="#7DA2FF"/>
</linearGradient>
<linearGradient id="paint20_linear_222_968" x1="302.392" y1="409.456" x2="300.443" y2="372.268" gradientUnits="userSpaceOnUse">
<stop stop-color="#FFBF00"/>
<stop offset="1" stop-color="#FFD044"/>
</linearGradient>
<linearGradient id="paint21_linear_222_968" x1="146.986" y1="406.076" x2="145.037" y2="368.887" gradientUnits="userSpaceOnUse">
<stop stop-color="#FFBF00"/>
<stop offset="1" stop-color="#FFD044"/>
</linearGradient>
<linearGradient id="paint22_linear_222_968" x1="335.958" y1="169.528" x2="335.958" y2="200.859" gradientUnits="userSpaceOnUse">
<stop stop-color="#FF4444"/>
<stop offset="1" stop-color="#FF8080"/>
</linearGradient>
<linearGradient id="paint23_linear_222_968" x1="182.032" y1="408.066" x2="211.081" y2="396.329" gradientUnits="userSpaceOnUse">
<stop stop-color="#6A53FF"/>
<stop offset="1" stop-color="#7DA2FF"/>
</linearGradient>
<linearGradient id="paint24_linear_222_968" x1="91.6338" y1="169.466" x2="120.683" y2="157.729" gradientUnits="userSpaceOnUse">
<stop stop-color="#FF4444"/>
<stop offset="1" stop-color="#FF8080"/>
</linearGradient>
</defs>
</svg>
